<?xml version="1.0" encoding="UTF-8" standalone="no"?> <!-- Created with Vectornator for iOS (http://vectornator.io/) --><!DOCTYPE svg PUBLIC "-//W3C//DTD SVG 1.1//EN" "http://www.w3.org/Graphics/SVG/1.1/DTD/svg11.dtd">
<svg height="100%" style="fill-rule:nonzero;clip-rule:evenodd;stroke-linecap:round;stroke-linejoin:round;" xmlns:xlink="http://www.w3.org/1999/xlink" xmlns="http://www.w3.org/2000/svg" xml:space="preserve" width="100%" xmlns:vectornator="http://vectornator.io" version="1.1" viewBox="0 0 948 948">
<metadata>
<vectornator:setting key="DimensionsVisible" value="1"/>
<vectornator:setting key="PencilOnly" value="0"/>
<vectornator:setting key="SnapToPoints" value="1"/>
<vectornator:setting key="OutlineMode" value="0"/>
<vectornator:setting key="RulersVisible" value="1"/>
<vectornator:setting key="CMYKEnabledKey" value="0"/>
<vectornator:setting key="SnapToEdges" value="1"/>
<vectornator:setting key="GuidesVisible" value="1"/>
<vectornator:setting key="DisplayWhiteBackground" value="1"/>
<vectornator:setting key="doHistoryDisabled" value="0"/>
<vectornator:setting key="TimeLapseWatermarkDisabled" value="0"/>
<vectornator:setting key="SnapToGuides" value="1"/>
<vectornator:setting key="Units" value="Pixels"/>
<vectornator:setting key="IsolateActiveLayer" value="0"/>
<vectornator:setting key="SnapToGrid" value="0"/>
<vectornator:setting key="DynamicGuides" value="1"/>
</metadata>
<defs>
<linearGradient y1="75.4922" id="LinearGradient" x1="219.51" y2="948" x2="693.9" gradientUnits="userSpaceOnUse" gradientTransform="matrix(1 -3.46945e-18 3.46945e-18 1 0 0)">
<stop stop-color="#ff0046" offset="0.0168067"/>
<stop stop-color="#cb0076" offset="0.985294"/>
</linearGradient>
<radialGradient cx="474" r="474" id="RadialGradient" gradientUnits="userSpaceOnUse" gradientTransform="matrix(1 0 0 1 0 0)" cy="474">
<stop stop-opacity="0" stop-color="#000000" offset="0"/>
<stop stop-opacity="0.100381" stop-color="#ffffff" offset="1"/>
</radialGradient>
</defs>
<g id="Layer 1" vectornator:layerName="Layer 1" visibility="hidden">
<path d="M112+112L912+112L912+912L112+912L112+112Z" opacity="1" fill="#ff5b33"/>
</g>
<g id="Layer 2" vectornator:layerName="Layer 2" visibility="hidden">
<path stroke="#ff0046" stroke-width="21.5451" d="M12+474C12+218.844+218.844+12+474+12C729.156+12+936+218.844+936+474C936+729.156+729.156+936+474+936C218.844+936+12+729.156+12+474Z" fill="none" stroke-linecap="round" opacity="1" stroke-linejoin="round"/>
<path stroke="#ff0046" stroke-width="7.48693" d="M39.2222+474C39.2222+233.879+233.879+39.2222+474+39.2222C714.121+39.2222+908.778+233.879+908.778+474C908.778+714.121+714.121+908.778+474+908.778C233.879+908.778+39.2222+714.121+39.2222+474Z" fill="none" stroke-linecap="round" opacity="1" stroke-linejoin="round"/>
<path stroke="#ff0046" stroke-width="110.972" d="M635.339+280.579C635.339+280.579+289.458+226.528+282.123+532.696C276.317+775.068+706.564+675.401+706.564+675.401M206.564+277.919C206.564+277.919+592.654+240.174+639.587+277.919C704.523+330.144+640.592+543.035+640.592+543.035" fill="none" stroke-linecap="butt" opacity="1" stroke-linejoin="miter"/>
</g>
<g id="Layer 2 copy" vectornator:layerName="Layer 2 copy">
<path d="M474+1.21875C212.895+1.21875+1.21879+212.895+1.21875+474C1.21875+735.105+212.895+946.781+474+946.781C735.105+946.781+946.781+735.105+946.781+474C946.781+212.895+735.105+1.21879+474+1.21875ZM474+22.7812C723.206+22.7812+925.219+224.794+925.219+474C925.219+723.206+723.206+925.219+474+925.219C224.794+925.219+22.7813+723.206+22.7813+474C22.7813+224.794+224.794+22.7813+474+22.7812ZM474+35.4688C231.811+35.4688+35.4688+231.811+35.4688+474C35.4688+716.189+231.811+912.531+474+912.531C716.189+912.531+912.531+716.189+912.531+474C912.531+231.811+716.189+35.4688+474+35.4688ZM474+42.9688C712.054+42.9688+905.031+235.946+905.031+474C905.031+712.054+712.054+905.031+474+905.031C235.946+905.031+42.9687+712.054+42.9688+474C42.9688+235.946+235.946+42.9687+474+42.9688ZM569.5+221.469C563.016+221.558+556.397+221.76+549.688+222.094C513.172+223.911+477.32+229.356+443.094+239.375C385.007+256.379+335.158+285.486+297.406+329.031C253.07+380.171+228.657+447.861+226.656+531.375C224.811+608.407+257.685+667.88+317.625+704.938C363.612+733.369+422.546+747.247+491.719+750.469C545.809+752.988+602.863+748.856+659.031+740.438C674.695+738.09+689.141+735.564+702.063+733.031C706.645+732.133+710.73+731.294+714.281+730.531C715.561+730.256+718.785+729.54+719.094+729.469L694.031+621.344C693.998+621.351+691.949+621.821+690.969+622.031C688.063+622.656+684.632+623.358+680.719+624.125C669.369+626.35+656.525+628.595+642.562+630.688C592.977+638.119+542.834+641.764+496.906+639.625C444.896+637.203+403.198+627.366+375.969+610.531C349.251+594.013+336.701+571.321+337.594+534.031C338.997+475.465+354.432+432.652+381.25+401.719C403.849+375.652+435.298+357.278+474.25+345.875C499.475+338.491+526.891+334.316+555.219+332.906C576.565+331.844+596.656+332.421+614.25+334C618.076+334.343+621.41+334.711+624.219+335.062C625.132+335.177+626.93+335.429+626.781+335.406L643.906+225.75C643.457+225.68+642.836+225.582+642.031+225.469C640.855+225.303+639.496+225.125+638+224.938C633.924+224.427+629.304+223.931+624.156+223.469C607.313+221.958+588.951+221.2+569.5+221.469ZM499.594+205.656C476.186+205.758+450.659+206.388+423.219+207.469C385.497+208.955+345.458+211.271+304.469+214.188C278.378+216.044+253.453+218.041+230.563+220.031C222.537+220.729+201.534+222.651+201.156+222.688L211.969+333.156C212.021+333.151+232.382+331.241+240.188+330.562C262.527+328.621+286.864+326.688+312.344+324.875C352.239+322.036+391.148+319.779+427.594+318.344C479.386+316.304+523.587+316.019+557.438+317.781C575.333+318.713+589.808+320.219+600.219+322.156C602.89+322.653+604.3+323.094+606.094+323.562C606.149+323.674+606.194+323.695+606.25+323.812C608.031+327.534+609.65+332.96+610.875+339.875C613.614+355.34+613.947+375.911+611.906+400.063C609.933+423.419+605.892+448.885+600.375+474.938C597.498+488.526+594.418+501.367+591.344+513.031C590.279+517.07+589.276+520.648+588.406+523.719C588.111+524.76+587.453+527.011+587.438+527.063L693.719+559C693.813+558.686+694.81+555.333+695.188+554C696.24+550.287+697.383+546.025+698.625+541.313C702.141+527.972+705.664+513.396+708.938+497.938C715.34+467.702+720.099+437.831+722.5+409.406C725.284+376.452+724.8+346.722+720.156+320.5C713.791+284.556+699.668+255.029+674.375+234.688C660.091+223.2+642.899+217.193+620.531+213.031C604.643+210.075+585.56+208.133+563.188+206.969C544.284+205.985+523.001+205.555+499.594+205.656Z" opacity="1" fill="url(#LinearGradient)"/>
<path d="M0+0L948+0L948+948L0+948L0+0Z" opacity="1" fill="url(#RadialGradient)"/>
</g>
<g id="Layer 3" vectornator:layerName="Layer 3" visibility="hidden">
<path d="M0+0L948+0L948+948L0+948L0+0Z" opacity="1" fill="#ff0046"/>
</g>
</svg>
