<?xml version="1.0" encoding="UTF-8" standalone="no"?> <!-- Created with Vectornator for iOS (http://vectornator.io/) --><!DOCTYPE svg PUBLIC "-//W3C//DTD SVG 1.1//EN" "http://www.w3.org/Graphics/SVG/1.1/DTD/svg11.dtd">
<svg height="100%" style="fill-rule:nonzero;clip-rule:evenodd;stroke-linecap:round;stroke-linejoin:round;" xmlns:xlink="http://www.w3.org/1999/xlink" xmlns="http://www.w3.org/2000/svg" xml:space="preserve" width="100%" xmlns:vectornator="http://vectornator.io" version="1.1" viewBox="0 0 948 948">
<metadata>
<vectornator:setting key="DimensionsVisible" value="1"/>
<vectornator:setting key="PencilOnly" value="0"/>
<vectornator:setting key="SnapToPoints" value="1"/>
<vectornator:setting key="OutlineMode" value="0"/>
<vectornator:setting key="RulersVisible" value="1"/>
<vectornator:setting key="CMYKEnabledKey" value="0"/>
<vectornator:setting key="SnapToEdges" value="1"/>
<vectornator:setting key="GuidesVisible" value="1"/>
<vectornator:setting key="DisplayWhiteBackground" value="1"/>
<vectornator:setting key="doHistoryDisabled" value="0"/>
<vectornator:setting key="TimeLapseWatermarkDisabled" value="0"/>
<vectornator:setting key="SnapToGuides" value="1"/>
<vectornator:setting key="Units" value="Pixels"/>
<vectornator:setting key="IsolateActiveLayer" value="0"/>
<vectornator:setting key="SnapToGrid" value="0"/>
<vectornator:setting key="DynamicGuides" value="1"/>
</metadata>
<defs>
<linearGradient y1="75.4922" id="LinearGradient" x1="219.51" y2="948" x2="693.9" gradientUnits="userSpaceOnUse" gradientTransform="matrix(1 -3.46945e-18 3.46945e-18 1 0 -7.00406)">
<stop stop-color="#ff0046" offset="0.0168067"/>
<stop stop-color="#cb0076" offset="0.985294"/>
</linearGradient>
</defs>
<g id="Layer 1" vectornator:layerName="Layer 1" visibility="hidden">
<path d="M112+112L912+112L912+912L112+912L112+112Z" opacity="1" fill="#ff5b33"/>
</g>
<g id="Layer 2" vectornator:layerName="Layer 2" visibility="hidden">
<path stroke="#ff0046" stroke-width="21.5451" d="M12+474C12+218.844+218.844+12+474+12C729.156+12+936+218.844+936+474C936+729.156+729.156+936+474+936C218.844+936+12+729.156+12+474Z" fill="none" stroke-linecap="round" opacity="1" stroke-linejoin="round"/>
<path stroke="#ff0046" stroke-width="7.48693" d="M39.2222+474C39.2222+233.879+233.879+39.2222+474+39.2222C714.121+39.2222+908.778+233.879+908.778+474C908.778+714.121+714.121+908.778+474+908.778C233.879+908.778+39.2222+714.121+39.2222+474Z" fill="none" stroke-linecap="round" opacity="1" stroke-linejoin="round"/>
<path stroke="#ff0046" stroke-width="110.972" d="M635.339+280.579C635.339+280.579+289.458+226.528+282.123+532.696C276.317+775.068+706.564+675.401+706.564+675.401M206.564+277.919C206.564+277.919+592.654+240.174+639.587+277.919C704.523+330.144+640.592+543.035+640.592+543.035" fill="none" stroke-linecap="butt" opacity="1" stroke-linejoin="miter"/>
</g>
<g id="Layer 2 copy" vectornator:layerName="Layer 2 copy">
<path d="M474-5.78531C212.895-5.78531+1.21879+205.891+1.21875+466.996C1.21875+728.101+212.895+939.777+474+939.777C735.105+939.777+946.781+728.101+946.781+466.996C946.781+205.891+735.105-5.78527+474-5.78531ZM474+15.7772C723.206+15.7772+925.219+217.79+925.219+466.996C925.219+716.202+723.206+918.215+474+918.215C224.794+918.215+22.7813+716.202+22.7813+466.996C22.7813+217.79+224.794+15.7772+474+15.7772ZM474+28.4647C231.811+28.4647+35.4688+224.807+35.4688+466.996C35.4688+709.185+231.811+905.527+474+905.527C716.189+905.527+912.531+709.185+912.531+466.996C912.531+224.807+716.189+28.4647+474+28.4647ZM474+35.9647C712.054+35.9647+905.031+228.942+905.031+466.996C905.031+705.05+712.054+898.027+474+898.027C235.946+898.027+42.9687+705.05+42.9688+466.996C42.9688+228.942+235.946+35.9646+474+35.9647ZM569.5+214.465C563.016+214.554+556.397+214.756+549.688+215.09C513.172+216.907+477.32+222.351+443.094+232.371C385.007+249.375+335.158+278.482+297.406+322.027C253.07+373.167+228.657+440.857+226.656+524.371C224.811+601.403+257.685+660.876+317.625+697.933C363.612+726.365+422.546+740.243+491.719+743.465C545.809+745.984+602.863+741.852+659.031+733.433C674.695+731.086+689.141+728.56+702.063+726.027C706.645+725.129+710.73+724.29+714.281+723.527C715.561+723.252+718.785+722.536+719.094+722.465L694.031+614.34C693.998+614.347+691.949+614.817+690.969+615.027C688.063+615.652+684.632+616.354+680.719+617.121C669.369+619.346+656.525+621.591+642.562+623.683C592.977+631.115+542.834+634.76+496.906+632.621C444.896+630.199+403.198+620.362+375.969+603.527C349.251+587.009+336.701+564.317+337.594+527.027C338.997+468.461+354.432+425.648+381.25+394.715C403.849+368.648+435.298+350.274+474.25+338.871C499.475+331.487+526.891+327.312+555.219+325.902C576.565+324.84+596.656+325.417+614.25+326.996C618.076+327.339+621.41+327.707+624.219+328.058C625.132+328.173+626.93+328.425+626.781+328.402L643.906+218.746C643.457+218.676+642.836+218.578+642.031+218.465C640.855+218.299+639.496+218.121+638+217.933C633.924+217.423+629.304+216.926+624.156+216.465C607.313+214.954+588.951+214.196+569.5+214.465ZM499.594+198.652C476.186+198.754+450.659+199.384+423.219+200.465C385.497+201.951+345.458+204.267+304.469+207.183C278.378+209.04+253.453+211.037+230.563+213.027C222.537+213.725+201.534+215.646+201.156+215.683L211.969+326.152C212.021+326.147+232.382+324.237+240.188+323.558C262.527+321.616+286.864+319.684+312.344+317.871C352.239+315.032+391.148+312.775+427.594+311.34C479.386+309.299+523.587+309.015+557.438+310.777C575.333+311.709+589.808+313.215+600.219+315.152C602.89+315.649+604.3+316.09+606.094+316.558C606.149+316.67+606.194+316.691+606.25+316.808C608.031+320.53+609.65+325.956+610.875+332.871C613.614+348.336+613.947+368.907+611.906+393.058C609.933+416.414+605.892+441.881+600.375+467.933C597.498+481.522+594.418+494.363+591.344+506.027C590.279+510.066+589.276+513.644+588.406+516.715C588.111+517.756+587.453+520.007+587.438+520.058L693.719+551.996C693.813+551.682+694.81+548.329+695.188+546.996C696.24+543.283+697.383+539.021+698.625+534.308C702.141+520.968+705.664+506.392+708.938+490.933C715.34+460.698+720.099+430.827+722.5+402.402C725.284+369.448+724.8+339.718+720.156+313.496C713.791+277.552+699.668+248.025+674.375+227.683C660.091+216.196+642.899+210.189+620.531+206.027C604.643+203.071+585.56+201.129+563.188+199.965C544.284+198.981+523.001+198.551+499.594+198.652Z" opacity="1" fill="url(#LinearGradient)"/>
</g>
<g id="Layer 3" vectornator:layerName="Layer 3" visibility="hidden">
<path d="M0+0L948+0L948+948L0+948L0+0Z" opacity="1" fill="#ff0046"/>
</g>
</svg>
